<?xml version="1.0" encoding="utf-8"?>
<!-- Generator: Adobe Illustrator 26.5.0, SVG Export Plug-In . SVG Version: 6.00 Build 0)  -->
<svg version="1.1" id="Layer_1" xmlns="http://www.w3.org/2000/svg" xmlns:xlink="http://www.w3.org/1999/xlink" x="0px" y="0px"
	 viewBox="0 0 45 45" style="enable-background:new 0 0 45 45;" xml:space="preserve">
<g>
	<path d="M22.5,0.4c-12.2,0-22.1,9.9-22.1,22.1s9.9,22.1,22.1,22.1s22.1-9.9,22.1-22.1S34.7,0.4,22.5,0.4z M32.6,40.6
		C28.4,43,23.2,42,20,38.7l-0.5,0.9c-0.1,0.2-0.3,0.2-0.5,0.2c-0.7-0.1-1.3-0.3-2-0.5s-1.3-0.5-1.9-0.7c-0.2-0.1-0.3-0.3-0.2-0.4
		l0.3-2.6c-1-0.6-1.9-1.2-2.8-2L10,34.7c-0.2,0.1-0.4,0-0.5-0.1c-0.5-0.5-0.9-1-1.3-1.6c-0.4-0.6-0.8-1.1-1.1-1.7
		C7,31.1,7,30.9,7.2,30.8L9,28.7c-0.2-0.5-0.4-1-0.6-1.6C8.2,26.5,8.1,26,8,25.4l-2.6-0.5c-0.2,0-0.3-0.2-0.3-0.4
		C5,23.8,5,23.1,5,22.5c0-0.7,0-1.4,0.1-2c0-0.2,0.2-0.3,0.3-0.4L8,19.6c0.2-1.1,0.6-2.2,1.1-3.2l-1.8-1.9c-0.1-0.1-0.1-0.3-0.1-0.5
		c0.3-0.6,0.7-1.2,1.1-1.7c0.4-0.6,0.8-1.1,1.3-1.6c0.1-0.1,0.3-0.2,0.5-0.1l2.4,1.1c0.8-0.8,1.8-1.4,2.8-2L14.9,7
		c0-0.2,0.1-0.4,0.2-0.4c0.6-0.3,1.3-0.5,1.9-0.7c0.7-0.2,1.3-0.4,2-0.5c0.2,0,0.4,0,0.5,0.2l1.3,2.3c1.1-0.1,2.3-0.1,3.4,0L25,6.4
		c-2.2-2.4-5.4-3.5-8.6-3.2c-0.1,0-0.2,0-0.2-0.1s0-0.2,0.1-0.3l0,0c9.2-2.9,19.4,0.9,24.2,9.6C46.1,22.4,42.6,35,32.6,40.6z"/>
	<path d="M24.2,37.2l1.3,2.3c0.1,0.2,0.3,0.2,0.5,0.2c0.7-0.1,1.3-0.3,2-0.5s1.3-0.5,1.9-0.7c0.2-0.1,0.3-0.3,0.2-0.4l-0.3-2.6
		c1-0.6,1.9-1.2,2.8-2l2.4,1.1c0.2,0.1,0.4,0,0.5-0.1c0.5-0.5,0.9-1,1.3-1.6c0.4-0.6,0.8-1.1,1.1-1.7c0.1-0.2,0.1-0.4-0.1-0.5
		l-1.8-2c0.5-1,0.8-2.1,1.1-3.2l2.6-0.5c0.2,0,0.3-0.2,0.3-0.4c0.1-0.7,0.1-1.4,0.1-2c0-0.7,0-1.4-0.1-2c0-0.2-0.2-0.3-0.3-0.4
		L37,19.6c-0.1-0.6-0.3-1.1-0.4-1.7c-0.2-0.5-0.4-1.1-0.6-1.6l1.8-1.9c0.1-0.1,0.1-0.3,0.1-0.5c-0.3-0.6-0.7-1.2-1.1-1.7
		c-0.4-0.6-0.8-1.1-1.3-1.6c-0.1-0.1-0.3-0.2-0.5-0.1l-2.4,1.1c-0.8-0.8-1.8-1.4-2.8-2L30.1,7c0-0.2-0.1-0.4-0.2-0.4
		c-0.6-0.3-1.3-0.5-1.9-0.7c-0.7-0.2-1.3-0.4-2-0.5c-0.2,0-0.4,0-0.5,0.2L25,6.4c0.6,0.6,1.1,1.3,1.5,2c2,3.5,1.7,7.7-0.4,10.8
		c0.5,0.5,0.8,1.1,1,1.8c0.8,2.5-0.6,5.3-3.1,6.1c-1.9,0.6-3.8,0-5-1.3c-2.1,3.1-2.4,7.3-0.4,10.8c0.4,0.8,0.9,1.4,1.5,2l0.8-1.4
		C21.9,37.4,23.1,37.4,24.2,37.2z M19.8,33.1C19.8,33.1,19.8,33,19.8,33.1c-0.1-0.5-0.2-1-0.2-1.5c0-0.1,0-0.1,0.1-0.2h0.1
		c1.7,0.5,3.7,0.5,5.5-0.1c4.9-1.6,7.6-6.8,6-11.7c-0.3-1-0.8-1.9-1.4-2.8c0,0,0-0.1-0.1-0.1c0-0.1,0-0.2,0-0.2
		c0.1-0.6,0.2-1.1,0.3-1.7c0-0.1,0.1-0.1,0.1-0.1c0.1,0,0.1,0,0.2,0c1.2,1.2,2.1,2.7,2.6,4.4c1.9,5.8-1.3,12.1-7.1,14
		c-2,0.6-4,0.7-5.8,0.3C19.9,33.3,19.8,33.2,19.8,33.1z"/>
	<path d="M20.9,17.6c-2.6,0.8-4.1,3.6-3.4,6.2l0,0c0,0.1,0.1,0.1,0.2,0.1c0,0,0.1,0,0.1-0.1c0.3-0.4,0.7-0.9,1.1-1.3
		c0.1-0.1,0.1-0.2,0.1-0.3c0.1-1.4,1-2.6,2.4-3.1c0.6-0.2,1.2-0.2,1.8-0.1c0.1,0,0.2,0,0.2,0c0.1,0,0.1-0.1,0.2-0.1
		c0.3-0.3,0.6-0.7,0.8-1.1v-0.1c0-0.1-0.1-0.1-0.1-0.1C23.3,17.3,22.1,17.2,20.9,17.6z"/>
	<path d="M25.5,13.7h0.1c0.1,0,0.1-0.1,0.1-0.2c0-0.6-0.1-1.2-0.2-1.7l0,0c0-0.1-0.2-0.2-0.3-0.3c-2-0.5-4.1-0.5-6.2,0.2
		C13,13.6,9.7,20,11.7,26c0.6,2,1.8,3.6,3.2,4.9c0,0,0.1,0.1,0.2,0c0.1,0,0.1-0.1,0.1-0.2c0-0.7,0.1-1.3,0.3-2c0-0.1,0-0.2,0-0.2
		c0-0.1,0-0.1-0.1-0.1c-0.4-0.4-0.7-0.9-1-1.4c-2.5-4.5-0.9-10.2,3.6-12.7C20.3,13,23.1,12.9,25.5,13.7z"/>
</g>
</svg>
